# xmcd
#
# Track frame offsets:
#	182
#	8990
#	21812
#	32652
#	45825
#	57855
#	70977
#	79817
#	93010
#	101490
#	114885
#	122685
#	134660
#	141135
#	154007
#	165910
#	177637
#	183427
#
# Disc length: 2607 seconds
#
# Revision: 5
# Processed by: cddbd v1.5.2PL0 Copyright (c) Steve Scherf et al.
# Submitted via: audiograbber 1.83.01
#
DISCID=e00a2d12
DTITLE=Various Artist - Songs Of The West Volume 3 - Gene Autry and Roy Rogers
DYEAR=1993
DGENRE=Country
TTITLE0=Gene Autry - The Yellow Rose Of Texas
TTITLE1=Roy Rogers and the Sons Of The Pioneers - Roving Cowboy
TTITLE2=Gene Autry - Under Fiesta Stars
TTITLE3=Roy Rogers and the Sons Of The Pioneers - Echoes From The Hills
TTITLE4=Gene Autry - Home On The Range
TTITLE5=Roy Rogers and the Sons Of The Pioneers - Blue Bonnet Girl
TTITLE6=Gene Autry - Ages And Ages Ago
TTITLE7=Roy Rogers and the Sons Of The Pioneers - Cowboy Night Herd Song
TTITLE8=Gene Autry - Tears On My Pillow
TTITLE9=Roy Rogers - That Pioneer Mother Of Mine
TTITLE10=Gene Autry - Tweedle-O-Twill
TTITLE11=Roy Rogers - Dust
TTITLE12=Gene Autry - Be Honest With Me
TTITLE13=Roy Rogers - When I Camped Under The Stars
TTITLE14=Gene Autry - Buttons And Bows
TTITLE15=Roy Rogers - Lovenworth
TTITLE16=Gene Autry - Dixie Cannon Ball
TTITLE17=Roy Rogers - Hoppy, Gene And Me
EXTD=
EXTT0=
EXTT1=
EXTT2=
EXTT3=
EXTT4=
EXTT5=
EXTT6=
EXTT7=
EXTT8=
EXTT9=
EXTT10=
EXTT11=
EXTT12=
EXTT13=
EXTT14=
EXTT15=
EXTT16=
EXTT17=
PLAYORDER=
